<mxfile host="Electron" modified="2023-12-10T17:33:49.016Z" agent="Mozilla/5.0 (Windows NT 10.0; Win64; x64) AppleWebKit/537.36 (KHTML, like Gecko) draw.io/22.1.2 Chrome/114.0.5735.289 Electron/25.9.4 Safari/537.36" etag="242rgE0rhI2UxECsfoQG" version="22.1.2" type="device">
  <diagram name="Page-1" id="edf60f1a-56cd-e834-aa8a-f176f3a09ee4">
    <mxGraphModel dx="1232" dy="1195" grid="1" gridSize="10" guides="1" tooltips="1" connect="1" arrows="1" fold="1" page="1" pageScale="1" pageWidth="850" pageHeight="1100" background="none" math="0" shadow="0">
      <root>
        <mxCell id="0" />
        <mxCell id="1" parent="0" />
        <mxCell id="e_K_E974sBM6reIO5fZL-7" value="ZED SDK" style="edgeStyle=orthogonalEdgeStyle;rounded=0;orthogonalLoop=1;jettySize=auto;html=1;exitX=0.5;exitY=1;exitDx=0;exitDy=0;entryX=0.5;entryY=0;entryDx=0;entryDy=0;fontSize=10;fontStyle=1" parent="1" source="60e70716793133e9-4" target="vUtEQ1WDIaLr55wLkuLu-16" edge="1">
          <mxGeometry relative="1" as="geometry" />
        </mxCell>
        <mxCell id="60e70716793133e9-4" value="ZED CAMERA SVO RECORDING" style="rounded=0;whiteSpace=wrap;html=1;shadow=0;labelBackgroundColor=none;strokeWidth=1;fontFamily=Verdana;fontSize=10;align=center;fontStyle=1" parent="1" vertex="1">
          <mxGeometry x="365" y="110" width="120" height="60" as="geometry" />
        </mxCell>
        <mxCell id="4EyMtzhhhyf9mukKDBPl-2" value="&lt;span style=&quot;font-size: 10px;&quot;&gt;&lt;b&gt;CORRELATING POINT&lt;br&gt;&amp;nbsp;ANGLE TO IMAGE PIXEL&lt;/b&gt;&lt;/span&gt;" style="edgeStyle=orthogonalEdgeStyle;rounded=0;orthogonalLoop=1;jettySize=auto;html=1;exitX=0.5;exitY=1;exitDx=0;exitDy=0;entryX=0.5;entryY=0;entryDx=0;entryDy=0;" parent="1" source="vUtEQ1WDIaLr55wLkuLu-16" target="4EyMtzhhhyf9mukKDBPl-1" edge="1">
          <mxGeometry relative="1" as="geometry" />
        </mxCell>
        <mxCell id="rjNBhgCXo03UDYOSe8E5-1" style="edgeStyle=orthogonalEdgeStyle;rounded=0;orthogonalLoop=1;jettySize=auto;html=1;entryX=1;entryY=0.5;entryDx=0;entryDy=0;exitX=1;exitY=0.5;exitDx=0;exitDy=0;" parent="1" source="4EyMtzhhhyf9mukKDBPl-1" target="Irl7B9xwEchcPY5wgv8W-2" edge="1">
          <mxGeometry relative="1" as="geometry">
            <Array as="points">
              <mxPoint x="520" y="372" />
              <mxPoint x="520" y="707" />
            </Array>
          </mxGeometry>
        </mxCell>
        <mxCell id="vUtEQ1WDIaLr55wLkuLu-16" value="POINT CLOUD OF PLANTS" style="whiteSpace=wrap;html=1;fontSize=10;fontFamily=Verdana;rounded=0;shadow=0;labelBackgroundColor=none;strokeWidth=1;fontStyle=1" parent="1" vertex="1">
          <mxGeometry x="365" y="220" width="120" height="60" as="geometry" />
        </mxCell>
        <mxCell id="vUtEQ1WDIaLr55wLkuLu-25" value="NEAREST NEIGHBOR&lt;br&gt;&amp;nbsp;INTERPOLATION" style="edgeStyle=orthogonalEdgeStyle;rounded=0;orthogonalLoop=1;jettySize=auto;html=1;fontSize=10;fontStyle=1" parent="1" source="vUtEQ1WDIaLr55wLkuLu-22" target="vUtEQ1WDIaLr55wLkuLu-24" edge="1">
          <mxGeometry relative="1" as="geometry" />
        </mxCell>
        <mxCell id="vUtEQ1WDIaLr55wLkuLu-22" value="LEAF MASK" style="whiteSpace=wrap;html=1;fontSize=10;fontFamily=Verdana;rounded=0;shadow=0;labelBackgroundColor=none;strokeWidth=1;fontStyle=1" parent="1" vertex="1">
          <mxGeometry x="365" y="452" width="120" height="60" as="geometry" />
        </mxCell>
        <mxCell id="Irl7B9xwEchcPY5wgv8W-3" value="&lt;font style=&quot;font-size: 10px;&quot;&gt;&lt;b&gt;BITMASK FILTER&amp;nbsp;&lt;/b&gt;&lt;/font&gt;" style="edgeStyle=orthogonalEdgeStyle;rounded=0;orthogonalLoop=1;jettySize=auto;html=1;entryX=0.5;entryY=0;entryDx=0;entryDy=0;" parent="1" source="vUtEQ1WDIaLr55wLkuLu-24" target="Irl7B9xwEchcPY5wgv8W-2" edge="1">
          <mxGeometry relative="1" as="geometry">
            <mxPoint as="offset" />
          </mxGeometry>
        </mxCell>
        <mxCell id="vUtEQ1WDIaLr55wLkuLu-24" value="SCALED LEAF MASK" style="whiteSpace=wrap;html=1;fontSize=10;fontFamily=Verdana;rounded=0;shadow=0;labelBackgroundColor=none;strokeWidth=1;fontStyle=1" parent="1" vertex="1">
          <mxGeometry x="365" y="572" width="120" height="60" as="geometry" />
        </mxCell>
        <mxCell id="e_K_E974sBM6reIO5fZL-3" value="TRAINED MODEL" style="edgeStyle=orthogonalEdgeStyle;rounded=0;orthogonalLoop=1;jettySize=auto;html=1;exitX=0.5;exitY=1;exitDx=0;exitDy=0;entryX=0.5;entryY=0;entryDx=0;entryDy=0;fontSize=10;fontStyle=1" parent="1" source="4EyMtzhhhyf9mukKDBPl-1" target="vUtEQ1WDIaLr55wLkuLu-22" edge="1">
          <mxGeometry relative="1" as="geometry">
            <mxPoint x="160" y="292" as="sourcePoint" />
          </mxGeometry>
        </mxCell>
        <mxCell id="Irl7B9xwEchcPY5wgv8W-2" value="POINT CLOUD OF LEAF" style="whiteSpace=wrap;html=1;fontSize=10;fontFamily=Verdana;rounded=0;shadow=0;labelBackgroundColor=none;strokeWidth=7;fontStyle=1" parent="1" vertex="1">
          <mxGeometry x="365" y="682" width="120" height="70" as="geometry" />
        </mxCell>
        <mxCell id="4EyMtzhhhyf9mukKDBPl-1" value="PROJECTION OF POINT CLOUD" style="whiteSpace=wrap;html=1;fontSize=10;fontFamily=Verdana;rounded=0;shadow=0;labelBackgroundColor=none;strokeWidth=1;fontStyle=1" parent="1" vertex="1">
          <mxGeometry x="365" y="342" width="120" height="60" as="geometry" />
        </mxCell>
        <mxCell id="ZUVpXmjQ6QaytkVDESN--2" value="ZED CAMERA" style="edgeStyle=orthogonalEdgeStyle;rounded=0;orthogonalLoop=1;jettySize=auto;html=1;entryX=0.5;entryY=0;entryDx=0;entryDy=0;fontSize=10;fontStyle=1" parent="1" source="ZUVpXmjQ6QaytkVDESN--1" target="60e70716793133e9-4" edge="1">
          <mxGeometry relative="1" as="geometry" />
        </mxCell>
        <mxCell id="ZUVpXmjQ6QaytkVDESN--1" value="GREENHOUSE + ZED CAMERA" style="rounded=0;whiteSpace=wrap;html=1;shadow=0;labelBackgroundColor=none;strokeWidth=1;fontFamily=Verdana;fontSize=10;align=center;fontStyle=1" parent="1" vertex="1">
          <mxGeometry x="365" width="120" height="60" as="geometry" />
        </mxCell>
        <mxCell id="ZUVpXmjQ6QaytkVDESN--3" value="1" style="ellipse;whiteSpace=wrap;html=1;aspect=fixed;labelBackgroundColor=none;fillColor=#000000;fontColor=#ffffff;" parent="1" vertex="1">
          <mxGeometry x="343" y="72" width="20" height="20" as="geometry" />
        </mxCell>
        <mxCell id="ZUVpXmjQ6QaytkVDESN--4" value="2" style="ellipse;whiteSpace=wrap;html=1;aspect=fixed;labelBackgroundColor=none;fillColor=#000000;fontColor=#ffffff;" parent="1" vertex="1">
          <mxGeometry x="343" y="185" width="20" height="20" as="geometry" />
        </mxCell>
        <mxCell id="ZUVpXmjQ6QaytkVDESN--5" value="3" style="ellipse;whiteSpace=wrap;html=1;aspect=fixed;labelBackgroundColor=none;fillColor=#000000;fontColor=#ffffff;" parent="1" vertex="1">
          <mxGeometry x="343" y="299" width="20" height="20" as="geometry" />
        </mxCell>
        <mxCell id="ZUVpXmjQ6QaytkVDESN--6" value="4" style="ellipse;whiteSpace=wrap;html=1;aspect=fixed;labelBackgroundColor=none;fillColor=#000000;fontColor=#ffffff;" parent="1" vertex="1">
          <mxGeometry x="343" y="416" width="20" height="20" as="geometry" />
        </mxCell>
        <mxCell id="ZUVpXmjQ6QaytkVDESN--7" value="5" style="ellipse;whiteSpace=wrap;html=1;aspect=fixed;labelBackgroundColor=none;fillColor=#000000;fontColor=#ffffff;" parent="1" vertex="1">
          <mxGeometry x="343" y="533" width="20" height="20" as="geometry" />
        </mxCell>
        <mxCell id="ZUVpXmjQ6QaytkVDESN--8" value="6" style="ellipse;whiteSpace=wrap;html=1;aspect=fixed;labelBackgroundColor=none;fillColor=#000000;fontColor=#ffffff;" parent="1" vertex="1">
          <mxGeometry x="343" y="647" width="20" height="20" as="geometry" />
        </mxCell>
      </root>
    </mxGraphModel>
  </diagram>
</mxfile>
